<?xml version="1.0" encoding="utf-8"?>
<!-- Generator: Adobe Illustrator 23.0.3, SVG Export Plug-In . SVG Version: 6.00 Build 0)  -->
<svg version="1.1" id="Layer_1" xmlns="http://www.w3.org/2000/svg" xmlns:xlink="http://www.w3.org/1999/xlink" x="0px" y="0px"
	 viewBox="0 0 395 125" style="enable-background:new 0 0 395 125;" xml:space="preserve">
<style type="text/css">
	.st0{fill:#333333;}
</style>
<g>
	<g>
		<path class="st0" d="M64.65,14.67c-2.36,5.26-8.55,9.5-13.81,9.5h-4.49l-2.13,4.77h-8.63L46.17,5.13h13.19
			C64.64,5.13,67.02,9.41,64.65,14.67z M55.37,14.67c0.56-1.25,0.03-2.33-1.23-2.33h-2.51l-2.07,4.63h2.51
			C53.33,16.97,54.81,15.92,55.37,14.67z"/>
		<path class="st0" d="M74.38,24.17h-1.95l-2.15,4.77h-8.63L72.36,5.13h13.19c5.28,0,7.64,4.28,5.24,9.54
			c-1.43,3.13-4.21,5.88-7.3,7.62l1.65,6.65h-9.26L74.38,24.17z M75.69,16.97h2.51c1.26,0,2.74-1.04,3.31-2.3
			c0.57-1.25,0.03-2.3-1.23-2.3h-2.52L75.69,16.97z"/>
		<path class="st0" d="M108.25,5.13l-10.9,23.81h-8.63L99.58,5.13H108.25z"/>
		<path class="st0" d="M120.94,5.13l-2.17,13.12l9.98-13.12h9.41l-18.88,23.81h-10.82l3.12-23.81H120.94z"/>
		<path class="st0" d="M156.84,5.13l-3.35,23.81h-8.88l0.39-2.33h-7.35l-1.82,2.33h-8.81l18.89-23.81H156.84z M142.57,19.44h4.3
			l0.01-4.77L142.57,19.44z"/>
		<path class="st0" d="M185.58,5.13l-3.64,7.66h-6.29l-7.63,16.15h-8.6l7.6-16.15h-6.29l3.6-7.66H185.58z"/>
		<path class="st0" d="M209.91,5.13l-3.51,7.31h-11.67l-0.56,1.18h7.54l-3.28,6.86h-7.53l-0.55,1.15h11.64l-3.5,7.31h-20.26
			l11.31-23.81H209.91z"/>
	</g>
</g>
<g>
	<g>
		<path class="st0" d="M60.77,57.29c-1.99,0-4.6,0.75-5.37,3.1c-0.04,0.12-0.12,0.37-0.2,0.62c-1.15,8.94,44.29,0.62,34.93,29.31
			c-5.5,16.89-23.64,31.79-49.97,31.79C1.54,122.12,8.9,91.07,8.9,91.07h34.59c-1,3.11,1.34,5.46,4.08,5.46
			c2.49,0,5.42-0.62,6.27-3.23c0.12-0.37,0.24-0.75,0.24-1.12c0.38-7.33-44.31,1.24-34.65-28.81C25.66,44,46.4,32.33,68.74,32.33
			c22.09,0,29.22,15.65,27.35,30.18h-31.4C65.29,59.9,64.14,57.29,60.77,57.29z"/>
		<path class="st0" d="M190.08,34.69l-16.11,48.68c-8,24.22-26.21,38.75-50.55,38.75c-24.34,0-32.9-14.53-25-38.75l15.9-48.68h30.45
			l-16.11,49.06c-2.53,7.7-1.63,11.8,3.47,11.8c5.1,0,8.81-4.1,11.34-11.8l16.15-49.06H190.08z"/>
		<path class="st0" d="M229.22,34.69l-28.28,84.95h-30.8l28.13-84.95H229.22z"/>
		<path class="st0" d="M312.84,34.69l-9.24,27.32h-22.43l-19.37,57.62h-30.68l19.27-57.62h-22.43l9.12-27.32H312.84z"/>
		<path class="st0" d="M392.84,34.69l-8.94,26.08h-41.63l-1.44,4.22h26.91l-8.35,24.46h-26.88l-1.39,4.1h41.55l-8.91,26.08h-72.29
			l28.72-84.95H392.84z"/>
	</g>
</g>
</svg>
